# xmcd CD database file
#
# Track frame offsets:
#	150
#	19272
#	54770
#	81705
#	110340
#	129070
#	165150
#	184300
#
# Disc length: 2773 seconds
#
# Revision: 0
# Processed by: cddbd v1.4PL0 Copyright (c) Steve Scherf et al.
# Submitted via: CDex 1.50
#
DISCID=5a0ad308
DTITLE=Various Artist - The Legacy Lives On Vol 2
DYEAR=2000
DGENRE=Jazz
TTITLE0=Jazz! 
TTITLE1=Old Man Jazz 
TTITLE2=Memories of You 
TTITLE3=Centerpiece
TTITLE4=New Rhumba 
TTITLE5=Sweet Lorraine 
TTITLE6=Moody's Mood for Love 
TTITLE7=Last Night When We Were Young 
EXTD=YEAR: 2000
EXTT0=
EXTT1=
EXTT2=
EXTT3=
EXTT4=
EXTT5=
EXTT6=
EXTT7=
PLAYORDER=
